<?xml version="1.0" encoding="UTF-8"?>
<!DOCTYPE svg PUBLIC "-//W3C//DTD SVG 1.1//EN" "http://www.w3.org/Graphics/SVG/1.1/DTD/svg11.dtd">
<!-- Creator: CorelDRAW -->
<svg xmlns="http://www.w3.org/2000/svg" xml:space="preserve" width="162.56mm" height="71.1198mm" version="1.1" style="shape-rendering:geometricPrecision; text-rendering:geometricPrecision; image-rendering:optimizeQuality; fill-rule:evenodd; clip-rule:evenodd"
viewBox="0 0 16255.98 7111.98"
 xmlns:xlink="http://www.w3.org/1999/xlink"
 xmlns:xodm="http://www.corel.com/coreldraw/odm/2003">
 <defs>
  <style type="text/css">
   <![CDATA[
    .fil0 {fill:none}
    .fil1 {fill:#13A652}
    .fil2 {fill:#06273F}
    .fil3 {fill:#06273F;fill-rule:nonzero}
   ]]>
  </style>
 </defs>
 <g id="Layer_x0020_1">
  <metadata id="CorelCorpID_0Corel-Layer"/>
  <rect class="fil0" x="-8.34" y="7.79" width="16256.01" height="7111.99"/>
  <path class="fil1" d="M11421.66 680.85c84.15,51.86 2814.85,268.85 2039.27,1937.09 -700.66,1507.11 -3755.43,2701.48 -5316.16,3142.93 -912.15,257.98 -1719.06,413.52 -2665.24,523.2 -183.87,21.29 -877.66,31.06 -971.94,96.58 217.49,176.36 2034.23,102.88 2427.19,61.25 2075.56,-219.95 4245.93,-839.37 6018.28,-1793.85 781.58,-420.92 2694.78,-1622.65 2385.17,-2786.53 -157.04,-590.41 -865.76,-895.39 -1539,-1056.46 -402.12,-96.21 -2140.68,-310.6 -2377.57,-124.21z"/>
  <g id="_1387518768">
   <path class="fil2" d="M3154.05 1638.06c-785.17,124.98 -1391.02,370.33 -1739.62,864.5 -190.8,270.52 -315.54,641.84 -253.78,1043.33 58.92,383.2 347.99,492.34 741.38,553.06 351.47,54.23 879.36,37.96 827.71,454.11 -88.88,715.9 -1128.81,855.07 -1577.69,1015.04 -301.34,107.38 -576.96,460.88 404.78,343.77 921.69,-109.95 2077.16,-678.07 2185.38,-1704.01 128.97,-1222.59 -1157.64,-676.3 -1540.04,-1022.03 -232.35,-210.13 -63.42,-605.62 301.91,-836.9 275.38,-174.34 588.75,-259.99 936.95,-363.67 666.17,-198.36 273.02,-436.31 -286.98,-347.2zm996.21 1395.3c35.33,174.5 187.63,321.77 188.5,484.31 1.16,216.25 -291.95,1450.15 -260.02,1775.45 130.64,32.99 341,-20.06 446.11,-74.65 144.97,-75.25 147.27,-195.4 172.2,-370.76 44.66,-314.64 97.72,-622.65 151.97,-947.19 192.27,-1150.24 231.19,-1118.85 -255.75,-985.9 -156.23,42.65 -302.64,69.38 -443.01,118.74zm7774.41 -1984.05c-302.64,-106.85 -803.31,101.21 -1025.93,298.61 -180.53,160.04 -521.23,681.17 -336.64,1007.87 138.31,244.79 942.95,152.34 648.01,657.61 -231.32,396.32 -859.73,327.6 -845.17,562.92 15.87,256.08 1636.88,-73.78 1499.21,-1158.57 -69.96,-551.2 -804.84,-235.96 -712.93,-700.64 50.02,-252.85 380.09,-378.19 603.92,-445.84 139.64,-42.19 168.4,-56.72 169.53,-221.96zm-6460.7 1632.92c98.35,580.65 294.97,-114.78 62.05,1286.18 -34.06,204.8 -43.49,453.48 -145.03,608.95 -66.43,101.65 -265.39,371.06 -291.95,488.01 143.61,-7.07 480.04,-107.05 627.05,-148.04 258.71,-72.16 283.41,-228.52 320.87,-496.71 54.69,-391.55 129.2,-1016.37 288.01,-1325.51 181.96,-354.16 763.51,-682.63 798.51,28.27 15.46,314.27 -225.26,1242.82 -148.57,1410.36 169.5,40.72 462.57,-23.03 547.16,-184.07 59.92,-114.04 101.28,-481.87 128.04,-644.47 60.59,-368.2 189.23,-967.22 -2.24,-1309.62 -218.12,-390.09 -757.51,-197.63 -1060.99,-24.99 -70.55,40.16 -180.33,124.77 -226.79,142.47 -134.84,51.32 -112.41,-33.66 -296.31,8.37 -197.39,45.15 -413.98,112.51 -599.81,160.8zm3930.7 -1068.73c-1475.92,309.11 -2007.08,2804.42 -591.96,2553.04 1522.51,-270.45 1907.96,-2828.69 591.96,-2553.04zm-181.17 521.9c-700.56,197.8 -914.35,1671.18 -225.79,1475.21 651.71,-185.49 899.79,-1665.51 225.79,-1475.21z"/>
   <path class="fil0" d="M4588.02 6189.8c0,0 4368.36,-135.3 8022.34,-2884.11"/>
   <path class="fil3" d="M4722.53 6182.6l-22.66 -341.72 -121.79 8.05 -4.55 -69.52 326.21 -21.59 4.62 69.49 -121.19 8.05 22.66 341.72 -83.3 5.52zm377.44 -126.81l79.77 5.22c-7.08,29.77 -20.86,53.22 -40.98,70.49 -20.26,17.17 -46.74,27.44 -79.28,30.71 -51.63,5.22 -91.61,-7.82 -119.76,-39.09 -22.28,-25.15 -35.56,-58.32 -39.75,-99.67 -4.92,-49.27 4.06,-89.22 26.95,-119.69 22.85,-30.57 53.99,-47.77 93.31,-51.73 44.11,-4.46 80.4,6.65 108.98,33.3 28.41,26.61 45.11,70.16 50.07,130.64l-196.48 19.76c2.97,23.25 11.08,40.71 24.49,52.49 13.34,11.81 29.11,16.77 47.04,14.94 12.27,-1.23 22.29,-5.63 29.87,-13.14 7.75,-7.52 12.98,-18.93 15.77,-34.23zm-3.43 -80.11c-2.86,-22.75 -10.44,-39.52 -22.82,-50.23 -12.37,-10.85 -26.51,-15.37 -42.55,-13.74 -17.06,1.69 -30.57,9.41 -40.48,23.02 -9.88,13.67 -13.64,31.3 -11.25,52.73l117.1 -11.78zm159.52 158.12l-46.24 -409.58 78.34 -8.85 46.27 409.58 -78.37 8.85zm316.96 -135.07l79.91 2.2c-5.96,30.01 -18.8,53.92 -38.26,71.99 -19.59,17.93 -45.64,29.21 -78.04,33.73 -51.4,7.19 -91.85,-4.32 -121.16,-34.53 -23.22,-24.29 -37.79,-56.92 -43.51,-98.07 -6.86,-49.04 0.63,-89.29 22.32,-120.63 21.72,-31.43 52.13,-49.8 91.28,-55.25 43.88,-6.09 80.64,3.56 110.15,29.11 29.44,25.51 47.8,68.39 55.05,128.61l-195.6 27.27c3.86,23.12 12.6,40.29 26.48,51.53 13.77,11.25 29.7,15.64 47.57,13.14 12.24,-1.73 22.05,-6.48 29.37,-14.3 7.45,-7.82 12.21,-19.39 14.44,-34.8zm-6.49 -79.9c-3.72,-22.62 -11.97,-39.12 -24.71,-49.34 -12.78,-10.31 -27.12,-14.34 -43.02,-12.11 -17,2.37 -30.2,10.58 -39.58,24.59 -9.39,14 -12.45,31.73 -9.25,53.09l116.56 -16.23zm390.82 -94.38l-74.72 25.42c-4.92,-14.87 -12.57,-25.45 -22.92,-31.81 -10.38,-6.28 -22.85,-8.35 -37.42,-6.12 -19.46,2.96 -33.97,12.14 -43.52,27.35 -9.48,15.23 -11.81,38.62 -6.95,70.19 5.39,35.1 15.04,58.95 29.04,71.66 13.97,12.7 30.84,17.49 50.53,14.43 14.84,-2.26 26.28,-8.38 34.4,-18.26 8.19,-9.91 12.61,-25.42 13.31,-46.71l78.84 1.33c-2.56,36.5 -13.74,65.51 -33.57,86.93 -19.79,21.52 -48.63,35.13 -86.69,40.98 -43.05,6.62 -79.57,-1.76 -109.35,-25.05 -29.87,-23.35 -48.46,-59.11 -55.88,-107.38 -7.49,-48.87 -0.44,-88.79 21.12,-119.93 21.49,-31.13 54.19,-50.06 98.1,-56.78 35.87,-5.52 65.61,-2.13 89.22,10.08 23.52,12.21 42.29,33.4 56.46,63.67zm45.47 51.4c-4.75,-25.85 -3.02,-52.07 5.29,-78.55 8.25,-26.58 22.92,-48.3 43.85,-65.33 21.02,-17.03 45.77,-28.18 74.55,-33.47 44.48,-8.15 83.46,-0.4 117.13,23.26 33.73,23.78 54.59,57.61 62.67,101.72 8.19,44.58 0.6,84.14 -22.62,118.6 -23.32,34.53 -56.68,55.79 -100.2,63.77 -26.88,4.93 -53.65,3.5 -80.33,-4.19 -26.62,-7.72 -48.44,-22.15 -65.51,-43.38 -17.03,-21.16 -28.67,-48.67 -34.83,-82.43zm80.54 -10.52c5.39,29.18 16.37,50.24 32.97,63.18 16.77,13.04 35.19,17.66 55.45,13.94 20.2,-3.73 35.77,-14.57 46.58,-32.67 10.84,-17.97 13.6,-41.78 8.21,-71.33 -5.29,-28.77 -16.26,-49.7 -32.8,-62.64 -16.53,-13.07 -34.96,-17.66 -55.15,-13.97 -20.3,3.69 -35.83,14.57 -46.88,32.7 -10.91,18 -13.7,41.62 -8.38,70.79zm246.87 -197.33l71.09 -14.24 7.99 39.99c19.33,-35.87 46.64,-57.36 81.93,-64.41 18.73,-3.72 35.8,-3.13 51.07,1.8 15.37,4.99 28.97,14.4 40.85,28.27 9.78,-18.23 21.36,-32.63 34.7,-43.38 13.3,-10.64 28.4,-17.69 45.34,-21.05 21.49,-4.33 40.48,-3.63 57.18,2.16 16.64,5.75 30.31,16.33 41.02,31.8 7.82,11.35 14.5,31.07 20.13,59.02l37.35 187.02 -77.34 15.47 -33.4 -167.2c-5.82,-29.07 -12.21,-47.24 -19.23,-54.55 -9.38,-9.59 -21.55,-12.91 -36.42,-9.92 -10.82,2.16 -20.4,7.45 -28.68,15.94 -8.18,8.61 -13.21,19.69 -14.9,33.26 -1.67,13.61 0.3,34.17 5.82,61.75l28.04 140.45 -77.31 15.43 -32.04 -160.31c-5.72,-28.41 -10.81,-46.54 -15.16,-54.19 -4.4,-7.75 -9.85,-13.11 -16.5,-16 -6.53,-2.86 -14.88,-3.26 -24.72,-1.3 -11.98,2.4 -22.06,7.72 -30.27,16.04 -8.32,8.41 -13.21,18.96 -14.94,31.97 -1.73,12.9 0.23,33.49 5.85,61.51l28.41 142.14 -77.34 15.47 -58.52 -292.94zm757.71 143.58l-10.21 -43.52c-6.98,18 -18.03,33.57 -33.16,46.88 -15.11,13.2 -32.24,22.05 -51.4,26.58 -19.6,4.55 -38.16,4.39 -55.69,-0.54 -17.66,-4.95 -31.67,-14.47 -42.25,-28.37 -10.64,-13.94 -19.16,-34.6 -25.61,-62.08l-43.25 -184.46 76.78 -18 31.4 133.9c9.62,41.02 16.94,65.7 21.99,74.32 4.96,8.58 11.84,14.73 20.63,18.33 8.75,3.62 18.93,4.09 30.47,1.39 13.21,-3.12 24.12,-9.48 32.9,-19.16 8.78,-9.65 13.77,-20.26 15.1,-31.87 1.27,-11.64 -2.89,-38.29 -12.67,-80l-28.81 -122.92 76.78 -18 68.16 290.85 -71.16 16.67zm413.47 -102.03l-76.48 19.36 -37.35 -147.61c-7.92,-31.23 -14.71,-51.03 -20.26,-59.28 -5.66,-8.38 -12.78,-14.1 -21.53,-17.33 -8.71,-3.23 -18.26,-3.46 -28.71,-0.83 -13.37,3.39 -24.48,10.05 -33.26,19.99 -8.82,9.95 -13.61,21.46 -14.51,34.37 -0.93,13 2.67,35.66 10.88,68.03l33.17 130.9 -76.45 19.4 -73.35 -289.59 70.86 -17.96 10.78 42.48c17.16,-38.89 44.94,-63.14 83.53,-72.92 16.93,-4.33 33.26,-5.16 48.83,-2.7 15.71,2.6 28.25,7.62 37.79,15.21 9.65,7.65 17.37,17.03 23.19,28.34 5.96,11.28 11.68,28.01 17.33,50.36l45.54 179.78zm-12.07 -347.71l-19.26 -70.55 76.08 -20.76 19.26 70.52 -76.08 20.79zm89.29 327.05l-78.65 -288.19 76.05 -20.76 78.68 288.19 -76.08 20.76zm345.2 -315.14l-70.69 35.13c-6.85,-14.03 -15.83,-23.55 -26.94,-28.44 -11.15,-4.86 -23.76,-5.26 -37.93,-1.06 -18.89,5.52 -32.03,16.5 -39.45,32.9 -7.35,16.36 -6.56,39.85 2.43,70.46 10.01,34.06 22.78,56.42 38.35,67.13 15.5,10.78 32.87,13.24 52,7.62 14.4,-4.23 24.95,-11.81 31.67,-22.69 6.78,-10.91 9.08,-26.88 6.98,-48.04l78.25 -9.21c2.33,36.52 -4.86,66.73 -21.66,90.65 -16.77,23.92 -43.55,41.31 -80.44,52.16 -41.78,12.24 -79.11,8.81 -111.74,-10.28 -32.7,-19.19 -55.92,-52.16 -69.66,-99 -13.94,-47.44 -12.28,-87.92 4.92,-121.66 17.17,-33.73 47.07,-56.85 89.69,-69.36 34.8,-10.24 64.77,-10.81 89.75,-1.89 24.95,8.94 46.41,27.47 64.47,55.58zm111.15 -28.01l-71.86 9.42c-1.13,-30.24 5.62,-55.02 20.16,-74.29 14.57,-19.26 40.35,-34.76 77.31,-46.47 33.57,-10.58 59.88,-14.6 78.88,-11.81 18.86,2.8 33.66,9.18 44.21,19.33 10.58,10.15 21.02,31.54 31.34,64.27l26.64 88.16c7.92,25.01 14.9,43.11 21.06,54.22 6.15,11.15 14.64,22.46 25.48,33.9l-74.65 23.59c-3.49,-4.33 -8.25,-10.88 -14.17,-19.67 -2.56,-4.12 -4.42,-6.75 -5.42,-7.95 -8.82,16.67 -19.56,30.41 -32.17,41.35 -12.68,10.95 -27.21,19.03 -43.78,24.29 -29.14,9.21 -54.72,8.52 -76.61,-2.1 -21.83,-10.51 -36.6,-27.94 -44.28,-52.29 -5.06,-16 -5.76,-31.6 -2.1,-46.67 3.8,-14.91 11.45,-27.98 23.19,-39.06 11.74,-11.08 29.81,-23.22 54.32,-36.49 33.07,-17.67 55.53,-31.61 67.27,-41.55l-2.4 -7.59c-4.62,-14.64 -11.51,-23.95 -20.62,-27.97 -9.18,-3.96 -23.72,-2.77 -43.58,3.45 -13.44,4.26 -23.02,10.22 -28.84,17.97 -5.89,7.72 -8.98,19.06 -9.38,33.96zm120.26 29.01c-8.62,6.26 -22.73,14.94 -42.22,26.02 -19.46,11.11 -31.77,19.79 -36.86,26.04 -7.55,10.15 -9.75,20.5 -6.39,31.18 3.4,10.64 10.18,18.42 20.46,23.61 10.31,5.23 21.49,5.89 33.67,2.03 13.54,-4.25 25.11,-12.8 34.66,-25.61 6.89,-9.72 10.31,-19.86 10.05,-30.61 -0.13,-7.02 -2.96,-19.62 -8.68,-37.62l-4.69 -15.04zm376.11 -189.38l-69.96 36.56c-7.12,-13.94 -16.3,-23.22 -27.55,-27.95 -11.21,-4.59 -23.82,-4.72 -37.89,-0.3 -18.76,5.92 -31.73,17.17 -38.82,33.67 -7.02,16.53 -5.72,39.98 3.89,70.46 10.68,33.83 23.89,55.95 39.62,66.33 15.77,10.45 33.14,12.58 52.2,6.59 14.3,-4.53 24.68,-12.34 31.2,-23.36 6.52,-11.01 8.55,-27.01 5.99,-48.17l78.08 -10.77c3.06,36.46 -3.53,66.83 -19.86,91.08 -16.27,24.25 -42.72,42.15 -79.38,53.72 -41.55,13.15 -78.91,10.45 -111.91,-8.01 -33.1,-18.5 -56.95,-51.03 -71.62,-97.57 -14.9,-47.14 -14.04,-87.66 2.5,-121.73 16.46,-34.06 45.9,-57.78 88.28,-71.15 34.6,-10.91 64.48,-12.11 89.69,-3.66 25.12,8.45 46.91,26.51 65.54,54.26zm-113.04 371.32l-9.95 -31.47c19.1,-3.93 36.33,-8.25 51.8,-13.14 15.93,-5.03 26.91,-11.65 32.76,-19.83 4.59,-6.15 5.79,-12.57 3.63,-19.43 -1.9,-6.05 -6.32,-10.48 -13.34,-13.24 -6.99,-2.69 -16.3,-2.19 -27.88,1.5 -11.51,3.63 -22.69,9.18 -33.63,16.57l-1.36 -28.88c12.34,-9.31 26.61,-16.43 42.71,-21.49 22.42,-7.09 40.88,-7.52 55.59,-1.43 14.77,6.25 24.42,16.37 28.84,30.47 5.02,15.8 2.63,30.54 -7.18,44.51 -13.11,18.96 -35.9,33.5 -68.27,43.71 -23.08,7.32 -41.02,11.35 -53.72,12.15zm165.6 -331.94c-8.45,-24.88 -10.55,-51.03 -6.16,-78.44 4.33,-27.51 15.71,-51.13 33.94,-70.99 18.29,-19.89 41.21,-34.53 68.89,-43.95 42.85,-14.5 82.5,-12.5 119.29,6.03 36.8,18.63 62.31,49.06 76.75,91.58 14.57,42.91 12.81,83.13 -5.19,120.59 -18.1,37.59 -48,63.44 -89.85,77.61 -25.95,8.82 -52.66,11.28 -80.14,7.52 -27.41,-3.76 -51.13,-14.84 -71.13,-33.43 -19.92,-18.43 -35.39,-43.98 -46.4,-76.52zm78.21 -22.09c9.51,28.11 23.45,47.38 41.75,57.76 18.46,10.47 37.36,12.37 56.88,5.75 19.43,-6.59 33.27,-19.59 41.35,-39.05 8.12,-19.37 7.42,-43.35 -2.23,-71.76 -9.41,-27.71 -23.28,-46.81 -41.51,-57.22 -18.27,-10.58 -37.16,-12.47 -56.59,-5.85 -19.53,6.62 -33.37,19.59 -41.65,39.15 -8.18,19.4 -7.55,43.15 2,71.22zm-42.38 -184.06l-34.37 11.68c-1.53,-4.06 -2.73,-7.22 -3.49,-9.48 -6.29,-18.63 -6.65,-34.53 -0.93,-47.58 5.55,-13.17 15.57,-22.12 29.77,-26.94 6.25,-2.13 12.18,-3.43 18,-3.89 5.85,-0.47 16.83,0.06 33.03,1.56 16.3,1.43 28.38,0.9 36.46,-1.83 5.66,-1.9 9.78,-5.36 12.38,-10.18 2.66,-4.92 2.99,-11.74 1.23,-20.56l34.33 -11.64c8.05,24.32 9.45,43.11 4.29,56.49 -5.29,13.44 -14.77,22.42 -28.61,27.14 -6.05,2.03 -12.21,3.39 -18.46,4.13 -4.43,0.26 -15.94,-0.1 -34.37,-1 -18.53,-0.9 -31.43,-0.1 -38.89,2.46 -5.72,1.93 -9.51,5.12 -11.44,9.75 -2.09,4.55 -1.66,11.17 1.07,19.89zm492.34 80.41l78.61 -14.54c0.43,30.57 -7.15,56.68 -22.42,78.37 -15.44,21.63 -38.52,38.13 -69.26,49.31 -48.77,17.73 -90.72,14.93 -125.68,-8.49 -27.85,-18.89 -48.84,-47.77 -63.08,-86.82 -16.9,-46.54 -17.99,-87.46 -3.32,-122.62 14.63,-35.23 40.61,-59.58 77.74,-73.09 41.65,-15.14 79.57,-13.34 113.8,5.46 34.1,18.82 60.98,56.91 80.68,114.3l-185.6 67.5c8.58,21.82 20.76,36.72 36.66,44.84 15.84,8.15 32.34,9.12 49.27,2.93 11.61,-4.23 20.19,-10.95 25.75,-20.1 5.62,-9.21 7.92,-21.52 6.85,-37.05zm-23.05 -76.78c-8.35,-21.36 -19.86,-35.76 -34.47,-43.12 -14.63,-7.45 -29.5,-8.35 -44.64,-2.86 -16.14,5.89 -27.28,16.67 -33.57,32.3 -6.22,15.67 -5.52,33.67 2.07,53.86l110.61 -40.18zm135.72 43.51l69.63 -40.15c8.68,13.04 19.23,21.35 31.7,24.91 12.51,3.66 27.42,2.07 44.68,-4.65 19.03,-7.42 31.97,-16.5 38.89,-27.22 4.52,-7.45 5.19,-15.33 2,-23.55 -2.2,-5.52 -5.79,-9.45 -10.72,-11.74 -5.02,-2.06 -14.53,-2.16 -28.37,-0.17 -64.57,10.01 -106.85,12.74 -126.98,8.12 -27.98,-6.49 -47.14,-23.12 -57.55,-49.83 -9.45,-24.26 -7.82,-48.27 4.82,-72.13 12.61,-23.88 38.92,-43.61 78.88,-59.18 38.02,-14.87 68.83,-19.62 92.14,-14.44 23.42,5.29 43.38,18.7 59.88,40.39l-64.2 39.89c-7.15,-9.78 -16.2,-15.97 -26.75,-18.5 -10.57,-2.59 -23.58,-0.8 -39.05,5.22 -19.46,7.59 -32.37,15.71 -38.72,24.49 -4.16,6.05 -4.96,12.14 -2.6,18.19 2.1,5.29 6.19,8.82 12.54,10.58 8.65,2.27 34.3,0.2 77.12,-6.22 42.78,-6.35 74.48,-6.19 95.1,0.73 20.56,7.02 35.4,22.36 44.52,45.75 9.94,25.48 7.88,51.63 -6.33,78.24 -14.13,26.61 -42.11,48.17 -83.93,64.47 -37.89,14.8 -70.89,18.79 -99.06,12.17 -28.02,-6.65 -50.6,-21.75 -67.64,-45.37zm621.62 -267.03l77.41 -20.16c2.63,30.47 -3.06,57.05 -16.73,79.81 -13.8,22.68 -35.69,40.78 -65.53,54.12 -47.38,21.19 -89.42,21.42 -126.02,0.57 -29.07,-16.84 -52.13,-44.15 -69.09,-82.07 -20.2,-45.18 -24.25,-85.93 -12.11,-122.06 12.04,-36.23 36.19,-62.34 72.22,-78.47 40.49,-18.1 78.48,-19.03 113.9,-2.76 35.4,16.36 64.97,52.39 88.73,108.24l-180.27 80.68c10.11,21.09 23.32,35.13 39.78,42.08 16.37,6.98 32.87,6.75 49.34,-0.63 11.27,-5.06 19.39,-12.38 24.25,-21.93 4.95,-9.54 6.35,-22.05 4.12,-37.42zm-28.44 -74.98c-9.88,-20.66 -22.39,-34.2 -37.52,-40.46 -15.14,-6.35 -29.98,-6.22 -44.68,0.37 -15.67,6.99 -26.05,18.56 -31.17,34.6 -5.09,16.1 -3.06,34 5.92,53.59l107.45 -48.1zm431.67 -4.79l-148.04 -308.85 -110.05 52.73 -30.1 -62.84 294.84 -141.29 30.14 62.84 -109.55 52.46 148.04 308.88 -75.28 36.07zm305.92 -254.16l76.21 -24.25c4.26,30.3 0,57.15 -12.44,80.57 -12.61,23.42 -33.47,42.61 -62.58,57.55 -46.14,23.72 -88.12,26.18 -125.74,7.32 -29.98,-15.27 -54.46,-41.32 -73.42,-78.28 -22.59,-44.04 -28.78,-84.53 -18.63,-121.22 10.14,-36.83 32.83,-64.21 67.99,-82.24 39.42,-20.25 77.28,-23.18 113.61,-8.81 36.16,14.4 67.63,48.87 94.31,103.32l-175.68 90.16c11.21,20.59 25.15,33.86 41.95,39.95 16.73,6.09 33.2,4.96 49.23,-3.26 10.98,-5.66 18.7,-13.41 23.06,-23.19 4.42,-9.81 5.12,-22.35 2.13,-37.62zm-32.44 -73.32c-10.94,-20.13 -24.18,-33 -39.59,-38.42 -15.47,-5.56 -30.27,-4.63 -44.61,2.72 -15.27,7.86 -25.01,19.93 -29.27,36.23 -4.23,16.34 -1.27,34.1 8.75,53.23l104.72 -53.76zm342.31 -215.77l-62.87 47.77c-9.35,-12.54 -19.96,-20.12 -31.8,-22.88 -11.85,-2.67 -24.32,-0.7 -37.43,6.02 -17.53,8.98 -28.41,22.25 -32.6,39.72 -4.19,17.46 1,40.38 15.54,68.76 16.23,31.6 32.96,51.16 50.26,58.78 17.27,7.65 34.77,6.85 52.5,-2.26 13.37,-6.85 22.32,-16.27 26.84,-28.24 4.66,-11.98 3.93,-28.08 -2.13,-48.47l75.15 -23.69c9.15,35.43 7.72,66.47 -4.29,93.08 -11.97,26.65 -35.06,48.74 -69.29,66.3 -38.76,19.86 -76.02,23.49 -111.61,10.81 -35.76,-12.71 -64.71,-40.75 -87.03,-84.2 -22.59,-43.97 -28.47,-84.06 -17.89,-120.42 10.54,-36.36 35.59,-64.64 75.11,-84.93 32.27,-16.57 61.54,-22.72 87.82,-18.63 26.19,4.13 50.7,18.26 73.72,42.48zm385.1 24.49l-69.1 37.99 -73.32 -133.4c-15.53,-28.28 -27.04,-45.71 -34.53,-52.33 -7.58,-6.65 -15.9,-10.41 -25.18,-11.34 -9.25,-0.94 -18.56,1.23 -27.98,6.42 -12.11,6.68 -21.16,15.9 -27.14,27.71 -6.09,11.87 -7.82,24.22 -5.46,36.92 2.4,12.84 11.58,33.84 27.68,63.08l65.03 118.36 -69.12 37.99 -143.85 -261.81 64.07 -35.23 21.09 38.43c6.86,-41.92 27.62,-72.43 62.55,-91.59 15.27,-8.41 30.87,-13.37 46.54,-14.9 15.83,-1.43 29.27,0.23 40.41,5.22 11.28,4.96 21.13,12.14 29.61,21.56 8.55,9.45 18.3,24.22 29.41,44.41l89.29 162.51zm-25.15 -164.07c-13.38,-22.63 -20.69,-47.84 -21.99,-75.59 -1.37,-27.81 4.95,-53.22 18.79,-76.41 13.84,-23.19 33.3,-42.18 58.49,-57.05 38.92,-22.92 78.21,-29.01 117.99,-18.36 39.86,10.74 71.06,35.36 93.81,74.05 22.96,39.02 29.45,78.74 19.47,119.09 -10.08,40.45 -34.07,71.86 -72.19,94.31 -23.59,13.87 -49.24,21.73 -76.92,23.65 -27.64,1.93 -53.12,-4.12 -76.44,-18.26 -23.26,-13.97 -43.61,-35.83 -61.01,-65.43zm72.09 -37.53c15.03,25.55 32.6,41.55 52.62,48.04 20.23,6.42 39.09,4.46 56.86,-5.99 17.69,-10.41 28.57,-25.95 32.53,-46.67 3.99,-20.59 -1.56,-43.91 -16.8,-69.8 -14.84,-25.21 -32.33,-41.08 -52.29,-47.57 -20.03,-6.58 -38.89,-4.62 -56.59,5.82 -17.76,10.45 -28.68,25.99 -32.8,46.78 -4.09,20.69 1.4,43.81 16.47,69.39zm323.41 -19.99l-219.92 -348.6 66.66 -42.08 219.93 348.6 -66.67 42.08zm37.99 -204.86c-14,-22.25 -22.15,-47.2 -24.28,-74.88 -2.23,-27.74 3.29,-53.36 16.43,-76.95 13.14,-23.62 31.97,-43.21 56.72,-58.81 38.23,-24.12 77.31,-31.44 117.37,-22.02 40.12,9.54 72.09,33.16 96.04,71.15 24.15,38.33 31.83,77.78 23.12,118.43 -8.82,40.75 -31.87,72.89 -69.26,96.48 -23.16,14.6 -48.54,23.25 -76.18,26.04 -27.52,2.76 -53.2,-2.53 -76.92,-15.93 -23.72,-13.24 -44.71,-34.5 -63.04,-63.51zm70.89 -39.75c15.84,25.08 33.87,40.55 54.13,46.37 20.39,5.86 39.19,3.33 56.62,-7.68 17.4,-10.95 27.78,-26.85 31.07,-47.64 3.39,-20.76 -2.89,-43.88 -18.93,-69.26 -15.6,-24.75 -33.56,-40.09 -53.76,-45.94 -20.19,-5.99 -38.99,-3.46 -56.35,7.55 -17.47,10.98 -27.85,26.85 -31.34,47.77 -3.46,20.79 2.73,43.75 18.56,68.83zm325.35 -12.68l81.01 -41.58c7.25,7.99 14.17,12.08 20.89,12.41 9.44,0.43 20.82,-3.76 34.19,-12.81 17.07,-11.54 28.15,-22.75 33.24,-33.73 3.39,-7.32 4.06,-15.74 1.86,-25.32 -1.66,-6.78 -7.48,-17.56 -17.3,-32.1l-24.18 -36.36c-1.47,40.29 -17.17,70.46 -47.07,90.69 -33.2,22.45 -69.07,26.24 -107.46,11.31 -30.27,-11.85 -56.55,-34.37 -78.87,-67.33 -28.11,-41.49 -39.45,-79.91 -34.3,-115.24 5.12,-35.33 22.59,-63.14 52.33,-83.23 30.61,-20.73 64.94,-24.39 102.96,-10.95l-23.65 -35.03 61.01 -41.28 150.06 221.85c19.76,29.18 32.14,52.63 37.03,70.3 4.99,17.69 5.89,33.56 2.73,47.73 -3.13,14.01 -10.28,28.41 -21.76,42.85 -11.34,14.5 -28.14,29.24 -50.33,44.21 -41.95,28.38 -76.55,41.29 -103.83,38.79 -27.37,-2.59 -48.43,-14.87 -63.4,-37.06 -1.47,-2.13 -3.2,-4.86 -5.16,-8.12zm-39.05 -184.13c17.73,26.25 35.76,41.95 54.05,47.28 18.4,5.29 35.1,2.89 49.97,-7.16 15.87,-10.71 25.15,-26.14 27.71,-46.07 2.56,-19.93 -4.42,-42.05 -20.99,-66.53 -17.3,-25.62 -35.36,-41.05 -54.32,-46.28 -18.87,-5.32 -36.43,-2.49 -52.56,8.45 -15.64,10.58 -24.39,25.42 -26.35,44.45 -1.83,18.99 5.62,40.91 22.49,65.86zm124.91 -309.61l-42.94 -59.21 63.8 -46.31 42.95 59.15 -63.81 46.37zm199.2 274.35l-175.51 -241.75 63.8 -46.34 175.55 241.75 -63.84 46.34zm55.59 -295.7l-65.2 31.7c-10.65,-28.34 -12.11,-53.99 -4.39,-76.85 7.68,-22.88 27.24,-45.77 58.61,-68.56 28.51,-20.66 52.2,-32.8 71.09,-36.16 18.77,-3.36 34.83,-1.96 48.07,4.32 13.21,6.29 29.88,23.26 50.07,51.07l53.19 75.18c15.41,21.19 27.75,36.13 37.13,44.74 9.38,8.65 20.96,16.67 34.93,24.12l-63.37 46.01c-4.66,-3.03 -11.28,-7.72 -19.67,-14.17 -3.75,-3.13 -6.35,-5.02 -7.65,-5.86 -3.09,18.6 -8.91,35.03 -17.46,49.4 -8.52,14.44 -19.76,26.68 -33.8,36.93 -24.75,17.96 -49.23,25.42 -73.35,22.26 -24.02,-3.06 -43.55,-14.94 -58.59,-35.6 -9.81,-13.57 -15.43,-28.11 -16.7,-43.58 -1.16,-15.37 1.93,-30.17 9.62,-44.44 7.62,-14.14 20.89,-31.44 39.95,-51.77 25.78,-27.21 42.65,-47.57 50.63,-60.71l-4.65 -6.42c-9.05,-12.47 -18.47,-19.09 -28.41,-20.06 -9.98,-0.83 -23.39,4.89 -40.26,17.13 -11.37,8.29 -18.59,16.97 -21.69,26.15 -3.12,9.18 -2.46,20.89 1.9,35.17zm123.22 -10.52c-6.19,8.65 -16.8,21.33 -31.77,38.03 -14.94,16.66 -23.92,28.84 -26.75,36.39 -3.95,11.98 -2.76,22.49 3.86,31.6 6.52,8.99 15.47,14.21 26.85,15.87 11.41,1.73 22.25,-1.2 32.57,-8.71 11.47,-8.32 19.76,-20.1 24.78,-35.27 3.43,-11.37 3.49,-22.12 -0.17,-32.23 -2.32,-6.62 -9.01,-17.63 -20.12,-32.94l-9.25 -12.74z"/>
  </g>
 </g>
</svg>
